<svg width="465" height="102" viewBox="0 0 465 102" fill="none" xmlns="http://www.w3.org/2000/svg">
<path fill-rule="evenodd" clip-rule="evenodd" d="M54.2505 15.0191C48.7845 12.733 42.8709 11.7472 36.9672 12.1379C31.0635 12.5286 25.328 14.2854 20.2043 17.2723L15.0346 20.2859L9.06527 9.84635L14.2349 6.83271C20.9445 2.92133 28.4554 0.620836 36.1864 0.109202C43.9174 -0.402432 51.6614 0.888506 58.8193 3.88215C65.9772 6.87579 72.357 11.4919 77.4654 17.3734C82.5738 23.2548 86.2737 30.244 88.2789 37.8002C90.2841 45.3564 90.541 53.2772 89.0295 60.9496C87.518 68.6221 84.2787 75.8406 79.5623 82.0468C74.8458 88.2531 68.7786 93.2806 61.83 96.7405C54.8813 100.2 45.9187 102 39.4899 102C33.0611 102 29.3073 101.027 24.3776 98.9649C19.5865 96.9611 15.2332 94.0241 11.5663 90.3215C7.8993 86.619 4.99052 82.2235 3.00597 77.3859C1.02143 72.5483 0 67.3634 0 62.1273C0 56.8911 1.02143 51.7062 3.00598 46.8686C4.99052 42.0311 7.89931 37.6355 11.5663 33.933C15.2332 30.2305 19.5865 27.2935 24.3776 25.2897C29.1688 23.2859 34.3038 22.2545 39.4897 22.2545C44.6756 22.2545 49.8106 23.2859 54.6018 25.2897C59.3929 27.2935 63.7462 30.2305 67.4131 33.933C71.0801 37.6355 73.9889 42.0311 75.9734 46.8686C76.827 48.9495 77.5025 51.0946 77.9951 53.2804C78.2361 49.1309 77.8184 44.9574 76.747 40.9202C75.2157 35.15 72.3903 29.8128 68.4894 25.3215C64.5885 20.8302 59.7165 17.3052 54.2505 15.0191ZM15.6465 76.0654C16.3236 63.106 26.9452 52.8084 39.9489 52.8084C52.4498 52.8084 62.7494 62.3252 64.1286 74.5749C64.4209 73.985 64.6927 73.384 64.9434 72.7728C66.328 69.3978 67.0406 65.7804 67.0406 62.1273C67.0406 58.4741 66.328 54.8568 64.9434 51.4817C63.5589 48.1067 61.5295 45.04 58.9712 42.4568C56.4128 39.8737 53.3756 37.8246 50.033 36.4266C46.6904 35.0286 43.1077 34.3091 39.4897 34.3091C35.8717 34.3091 32.289 35.0286 28.9464 36.4266C25.6038 37.8246 22.5666 39.8737 20.0082 42.4568C17.4499 45.04 15.4205 48.1067 14.0359 51.4817C12.6514 54.8568 11.9387 58.4741 11.9387 62.1273C11.9387 65.7804 12.6514 69.3978 14.0359 72.7728C14.5014 73.9074 15.0397 75.0072 15.6465 76.0654ZM52.3468 77.3811C52.3468 84.2947 46.7961 89.8993 39.9489 89.8993C33.1017 89.8993 27.5509 84.2947 27.5509 77.3811C27.5509 70.4675 33.1017 64.8629 39.9489 64.8629C46.7961 64.8629 52.3468 70.4675 52.3468 77.3811Z" fill="url(#paint0_radial_11911_9602)"/>
<path d="M166.616 97C159.132 97 154.357 92.0788 152.293 82.2363L149.325 67.8611C148.379 63.1989 147.303 59.6591 146.099 57.2416C144.981 54.8242 143.389 53.1838 141.324 52.3204C139.346 51.457 136.593 51.0254 133.066 51.0254C131.861 51.0254 130.915 51.3707 130.227 52.0614C129.539 52.6658 129.195 53.4428 129.195 54.3925V86.769C129.195 88.5821 129.539 89.834 130.227 90.5247C130.915 91.1291 132.464 91.6471 134.872 92.0788L139.647 92.8558C140.593 93.0285 141.066 93.5033 141.066 94.2804C141.066 95.3164 140.421 95.8344 139.131 95.8344H112.936C111.645 95.8344 111 95.3596 111 94.4099C111 93.6328 111.559 93.1148 112.678 92.8558L115.645 92.3378C117.452 91.9924 118.613 91.5176 119.13 90.9132C119.732 90.3089 120.033 89.1001 120.033 87.287V11.1375C120.033 9.32443 119.732 8.11571 119.13 7.51134C118.613 6.90699 117.452 6.43213 115.645 6.08678L112.678 5.56876C111.559 5.30974 111 4.79172 111 4.01468C111 3.06497 111.645 2.59012 112.936 2.59012H139.131C144.206 2.59012 148.723 3.583 152.68 5.56876C156.637 7.55451 159.734 10.3173 161.971 13.8571C164.207 17.3106 165.326 21.3253 165.326 25.9012C165.326 31.3404 163.691 36.2617 160.422 40.6649C157.153 44.9817 153.024 48.0467 148.034 49.8598C147.432 50.0325 147.088 50.3347 147.002 50.7663C147.002 51.1117 147.303 51.4139 147.905 51.6729C150.658 52.968 152.809 54.781 154.357 57.1121C155.992 59.4433 157.239 62.5514 158.1 66.4366L160.938 79.6462C161.885 84.1357 163.003 87.3302 164.294 89.2296C165.584 91.1291 167.218 92.0788 169.197 92.0788C169.885 92.0788 170.487 91.9924 171.004 91.8198C171.606 91.5607 172.337 91.1291 173.197 90.5247C173.885 90.093 174.531 90.0067 175.133 90.2657C175.735 90.4384 176.036 90.87 176.036 91.5607C176.036 93.0285 175.09 94.3235 173.197 95.4459C171.305 96.482 169.111 97 166.616 97ZM137.84 47.7877C143.69 47.7877 148.121 45.8451 151.131 41.9599C154.142 37.9884 155.648 32.7218 155.648 26.1602C155.648 19.7712 153.884 14.8068 150.357 11.267C146.916 7.64085 142.142 5.82776 136.034 5.82776C131.474 5.82776 129.195 7.55451 129.195 11.008V40.6649C129.195 45.4134 132.077 47.7877 137.84 47.7877Z" fill="#19213D"/>
<path d="M176.426 95.8344C175.394 95.8344 174.878 95.3596 174.878 94.4099C174.878 93.5465 175.351 93.0285 176.297 92.8558L178.104 92.5968C179.91 92.3378 181.072 91.8198 181.588 91.0427C182.19 90.2657 182.491 88.9706 182.491 87.1575V12.9506C182.491 11.3965 182.233 10.3605 181.717 9.84245C181.287 9.23809 180.47 8.84958 179.265 8.6769L176.555 8.28838C175.609 8.1157 175.136 7.59768 175.136 6.73431C175.136 5.87094 175.609 5.35291 176.555 5.18024C178.964 4.66221 180.986 4.05785 182.62 3.36715C184.255 2.67645 185.631 1.98575 186.749 1.29506C188.126 0.431686 189.158 0 189.846 0C190.793 0 191.266 0.690697 191.266 2.07209V36.3912C191.266 37.1682 191.524 37.6431 192.04 37.8157C192.556 37.9021 193.201 37.5999 193.976 36.9092C197.245 33.8874 200.127 31.8153 202.621 30.6929C205.116 29.5705 207.74 29.0093 210.493 29.0093C214.536 29.0093 217.719 30.3907 220.042 33.1535C222.365 35.83 223.526 39.8015 223.526 45.0681V87.1575C223.526 88.9706 223.784 90.2657 224.3 91.0427C224.902 91.7334 226.107 92.2083 227.913 92.4673L230.752 92.8558C231.698 93.0285 232.172 93.5465 232.172 94.4099C232.172 95.3596 231.655 95.8344 230.623 95.8344H208.944C207.74 95.8344 207.138 95.3596 207.138 94.4099C207.138 93.5465 207.611 93.0285 208.557 92.8558L210.364 92.5968C212.17 92.3378 213.332 91.8198 213.848 91.0427C214.45 90.2657 214.751 88.9706 214.751 87.1575V46.4927C214.751 42.2621 213.977 39.2835 212.428 37.5567C210.88 35.83 208.686 34.9666 205.847 34.9666C203.095 34.9666 200.6 35.7868 198.363 37.4272C196.212 38.9813 194.492 41.0966 193.201 43.773C191.911 46.3631 191.266 49.2554 191.266 52.4499V87.1575C191.266 88.9706 191.524 90.2657 192.04 91.0427C192.642 91.8198 193.847 92.2946 195.653 92.4673L199.137 92.8558C200.084 93.0285 200.557 93.5465 200.557 94.4099C200.557 95.3596 200.041 95.8344 199.008 95.8344H176.426Z" fill="#19213D"/>
<path d="M248.266 17.4833C246.46 17.4833 244.911 16.8358 243.621 15.5407C242.416 14.2457 241.814 12.6052 241.814 10.6195C241.814 8.63373 242.416 7.03649 243.621 5.82776C244.911 4.53271 246.46 3.88518 248.266 3.88518C250.073 3.88518 251.578 4.53271 252.783 5.82776C253.987 7.03649 254.589 8.63373 254.589 10.6195C254.589 12.6052 253.987 14.2457 252.783 15.5407C251.578 16.8358 250.073 17.4833 248.266 17.4833ZM237.427 95.8344C236.137 95.8344 235.491 95.3596 235.491 94.4099C235.491 93.6328 236.05 93.1148 237.169 92.8558L238.717 92.5968C240.868 92.2514 242.244 91.7334 242.847 91.0427C243.449 90.2657 243.75 88.9706 243.75 87.1575V43.6435C243.75 42.0894 243.492 41.0534 242.976 40.5354C242.545 39.931 241.728 39.5425 240.524 39.3698L237.814 38.9813C236.696 38.895 236.137 38.4201 236.137 37.5567C236.137 36.866 236.825 36.3912 238.201 36.1322C240.868 35.7005 243.019 35.0098 244.653 34.0601C246.288 33.1104 247.879 31.9448 249.428 30.5634C250.202 29.7864 250.847 29.3979 251.363 29.3979C252.137 29.3979 252.525 29.9159 252.525 30.9519V87.1575C252.525 88.9706 252.783 90.2657 253.299 91.0427C253.815 91.8198 254.804 92.2946 256.267 92.4673L259.493 92.8558C260.439 93.0285 260.912 93.5033 260.912 94.2804C260.912 95.3164 260.267 95.8344 258.977 95.8344H237.427Z" fill="#19213D"/>
<path d="M266.158 95.8344C264.868 95.8344 264.223 95.3596 264.223 94.4099C264.223 93.6328 264.782 93.1148 265.9 92.8558L267.449 92.5968C269.255 92.2514 270.417 91.7334 270.933 91.0427C271.535 90.2657 271.836 88.9706 271.836 87.1575V43.6435C271.836 42.0894 271.578 41.0534 271.062 40.5354C270.632 39.931 269.815 39.5425 268.61 39.3698L265.9 38.9813C264.782 38.895 264.223 38.4201 264.223 37.5567C264.223 36.866 264.911 36.3912 266.288 36.1322C268.954 35.7005 270.976 35.0098 272.352 34.0601C273.815 33.1104 275.32 31.9448 276.869 30.5634C277.643 29.7864 278.288 29.3979 278.804 29.3979C279.579 29.3979 279.966 29.9159 279.966 30.9519V36.7797C279.966 37.5567 280.224 38.0748 280.74 38.3338C281.342 38.5064 281.987 38.2474 282.676 37.5567C286.117 34.2759 289.128 32.0311 291.708 30.8224C294.375 29.6137 297.171 29.0093 300.096 29.0093C303.967 29.0093 307.064 30.3907 309.387 33.1535C311.71 35.83 312.871 39.8015 312.871 45.0681V87.1575C312.871 88.9706 313.129 90.2657 313.645 91.0427C314.247 91.7334 315.452 92.2083 317.258 92.4673L320.097 92.8558C321.043 93.0285 321.517 93.5465 321.517 94.4099C321.517 95.3596 321 95.8344 319.968 95.8344H298.289C297.085 95.8344 296.483 95.3596 296.483 94.4099C296.483 93.5465 296.956 93.0285 297.902 92.8558L299.709 92.5968C301.515 92.3378 302.677 91.8198 303.193 91.0427C303.795 90.2657 304.096 88.9706 304.096 87.1575V46.4927C304.096 42.2621 303.322 39.2835 301.774 37.5567C300.225 35.83 298.031 34.9666 295.192 34.9666C292.44 34.9666 289.945 35.7868 287.708 37.4272C285.557 38.9813 283.837 41.0966 282.547 43.773C281.256 46.3631 280.611 49.2554 280.611 52.4499V87.1575C280.611 88.9706 280.869 90.2657 281.385 91.0427C281.987 91.8198 283.192 92.2946 284.998 92.4673L288.482 92.8558C289.429 93.0285 289.902 93.5033 289.902 94.2804C289.902 95.3164 289.257 95.8344 287.966 95.8344H266.158Z" fill="#19213D"/>
<path d="M349.096 97C344.709 97 340.751 95.5323 337.224 92.5968C333.783 89.575 331.03 85.474 328.966 80.2937C326.901 75.1135 325.869 69.3289 325.869 62.9399C325.869 56.551 326.901 50.8095 328.966 45.7156C331.03 40.6217 333.826 36.5639 337.353 33.5421C340.88 30.5202 344.795 29.0093 349.096 29.0093C353.483 29.0093 357.397 30.5202 360.839 33.5421C364.366 36.5639 367.161 40.6217 369.226 45.7156C371.291 50.8095 372.323 56.551 372.323 62.9399C372.323 69.3289 371.291 75.1135 369.226 80.2937C367.248 85.474 364.495 89.575 360.968 92.5968C357.44 95.5323 353.483 97 349.096 97ZM349.096 93.7623C358.043 93.7623 362.516 83.4882 362.516 62.9399C362.516 42.478 358.043 32.247 349.096 32.247C340.149 32.247 335.676 42.478 335.676 62.9399C335.676 83.4882 340.149 93.7623 349.096 93.7623Z" fill="#19213D"/>
<path d="M379.446 95.8344C378.156 95.8344 377.511 95.3596 377.511 94.4099C377.511 93.6328 378.07 93.1148 379.188 92.8558L380.737 92.5968C382.543 92.2514 383.705 91.7334 384.221 91.0427C384.823 90.2657 385.124 88.9706 385.124 87.1575V43.6435C385.124 42.0894 384.866 41.0534 384.35 40.5354C383.92 39.931 383.103 39.5425 381.898 39.3698L379.188 38.9813C378.07 38.895 377.511 38.4201 377.511 37.5567C377.511 36.866 378.199 36.3912 379.576 36.1322C382.242 35.7005 384.264 35.0098 385.64 34.0601C387.103 33.1104 388.608 31.9448 390.157 30.5634C390.931 29.7864 391.576 29.3979 392.092 29.3979C392.867 29.3979 393.254 29.9159 393.254 30.9519V36.7797C393.254 37.3841 393.512 37.8589 394.028 38.2043C394.544 38.4633 395.103 38.2906 395.706 37.6862C399.233 34.3191 402.287 32.0311 404.867 30.8224C407.534 29.6137 410.201 29.0093 412.868 29.0093C415.363 29.0093 417.556 29.7 419.449 31.0814C421.427 32.3765 422.89 34.3623 423.836 37.0387C424.094 37.7294 424.524 38.1611 425.127 38.3338C425.815 38.4201 426.46 38.1611 427.062 37.5567C430.589 34.2759 433.643 32.0311 436.224 30.8224C438.805 29.6137 441.429 29.0093 444.096 29.0093C447.709 29.0093 450.634 30.3907 452.87 33.1535C455.193 35.83 456.354 39.8015 456.354 45.0681V87.1575C456.354 88.9706 456.612 90.2657 457.129 91.0427C457.731 91.7334 458.935 92.2083 460.742 92.4673L463.581 92.8558C464.527 93.0285 465 93.5465 465 94.4099C465 95.3596 464.484 95.8344 463.452 95.8344H441.386C440.181 95.8344 439.579 95.3596 439.579 94.4099C439.579 93.5465 440.052 93.0285 440.999 92.8558L442.805 92.5968C444.784 92.3378 446.074 91.8198 446.676 91.0427C447.279 90.2657 447.58 88.9706 447.58 87.1575V46.4927C447.58 42.2621 446.805 39.2835 445.257 37.5567C443.794 35.83 441.773 34.9666 439.192 34.9666C436.611 34.9666 434.245 35.7868 432.095 37.4272C430.03 38.9813 428.353 41.0966 427.062 43.773C425.772 46.3631 425.127 49.2554 425.127 52.4499V87.1575C425.127 88.9706 425.428 90.2657 426.03 91.0427C426.632 91.7334 427.879 92.2083 429.772 92.4673L432.611 92.8558C433.557 93.0285 434.03 93.5465 434.03 94.4099C434.03 95.3596 433.514 95.8344 432.482 95.8344H410.545C409.341 95.8344 408.739 95.3596 408.739 94.4099C408.739 93.5465 409.212 93.0285 410.158 92.8558L411.965 92.5968C413.771 92.3378 414.932 91.8198 415.449 91.0427C416.051 90.2657 416.352 88.9706 416.352 87.1575V46.4927C416.352 42.2621 415.578 39.2835 414.029 37.5567C412.567 35.83 410.545 34.9666 407.964 34.9666C405.384 34.9666 403.018 35.7868 400.867 37.4272C398.802 38.9813 397.125 41.0966 395.835 43.773C394.544 46.3631 393.899 49.2554 393.899 52.4499V87.1575C393.899 88.9706 394.157 90.2657 394.673 91.0427C395.275 91.8198 396.48 92.2946 398.286 92.4673L401.77 92.8558C402.717 93.0285 403.19 93.5033 403.19 94.2804C403.19 95.3164 402.545 95.8344 401.254 95.8344H379.446Z" fill="#19213D"/>
<defs>
<radialGradient id="paint0_radial_11911_9602" cx="0" cy="0" r="1" gradientUnits="userSpaceOnUse" gradientTransform="translate(45 102) rotate(-90) scale(102 90)">
<stop stop-color="#239CFF"/>
<stop offset="1" stop-color="#005BE3"/>
</radialGradient>
</defs>
</svg>
