<svg width="600" height="600" viewBox="0 0 600 600" fill="none" xmlns="http://www.w3.org/2000/svg">
<path d="M144.775 127.186C139.551 132.41 134.327 137.634 129.103 142.858C112.386 158.53 95.6693 175.247 85.2214 196.143C72.6838 220.173 75.8181 246.293 75.8181 272.413C75.8181 312.115 75.8181 411.371 75.8181 469.88L129.103 430.177C129.103 358.086 129.103 245.248 129.103 193.008C129.103 171.067 133.282 152.261 144.775 134.499C145.82 131.365 145.82 128.231 144.775 127.186Z" fill="#107A4D"/>
<path d="M230.448 83.3033C225.224 88.5272 220 93.7512 214.776 98.9752C198.059 114.647 181.343 131.364 170.895 152.26C158.357 176.29 161.492 202.41 161.492 228.53C161.492 263.008 161.492 345.547 161.492 404.056L214.776 364.354C214.776 293.308 214.776 196.141 214.776 148.081C214.776 126.14 218.955 107.334 230.448 89.5719C231.493 87.4824 231.493 85.3929 230.448 83.3033Z" fill="#107A4D"/>
<path d="M314.032 34.1992C308.808 39.4232 303.584 44.6472 298.36 49.8712C281.643 65.5431 264.927 82.2598 254.479 103.156C241.941 127.186 245.075 153.306 245.075 179.426C245.075 211.815 245.075 282.861 245.075 340.325L298.36 300.623C298.36 231.666 298.36 143.903 298.36 100.021C298.36 78.0806 302.539 59.2743 314.032 41.5128C315.077 38.3784 316.122 36.2888 314.032 34.1992Z" fill="#107A4D"/>
<path d="M455.08 474.058C460.304 468.834 465.528 463.61 470.752 458.386C487.468 442.714 504.185 425.998 514.633 405.102C527.171 381.071 524.036 354.951 524.036 328.831L524.036 131.364L470.752 171.067C470.752 243.158 470.752 355.996 470.752 408.236C470.752 430.177 466.572 448.983 455.08 466.745C454.035 469.879 454.035 471.969 455.08 474.058Z" fill="#107A4D"/>
<path d="M369.406 517.94C374.63 512.716 379.854 507.492 385.078 502.268C401.795 486.596 418.512 469.88 428.96 448.984C441.497 424.954 438.363 398.834 438.363 372.714L438.363 197.188L385.078 236.89C385.078 307.936 385.078 405.102 385.078 453.163C385.078 475.104 380.899 493.91 369.406 511.672C368.361 513.761 368.361 515.851 369.406 517.94Z" fill="#107A4D"/>
<path d="M284.777 566C290.001 560.776 295.225 555.552 300.449 550.328C317.165 534.656 333.882 517.939 344.33 497.043C356.868 473.013 353.733 446.893 353.733 420.773L353.733 259.874L300.449 299.577C300.449 368.533 300.449 456.296 300.449 500.178C300.449 522.118 296.269 540.925 284.777 558.686C283.732 561.821 283.732 563.91 284.777 566Z" fill="#107A4D"/>
</svg>
