<svg width="775" height="160" viewBox="0 0 775 160" fill="none" xmlns="http://www.w3.org/2000/svg">
<path d="M192.359 86.2625C178.879 82.7925 168.201 76.373 168.201 62.493C168.201 46.7044 181.855 36.8149 200.937 36.8149C223.345 36.8149 234.549 51.0419 234.899 66.31H221.419C220.894 55.8999 214.067 48.4394 200.412 48.4394C189.558 48.4394 181.855 52.7769 181.855 61.105C181.855 68.045 187.457 71.6885 195.51 73.597L210.39 77.2405C224.045 80.537 234.724 87.13 234.724 101.357C234.724 117.666 220.719 127.035 201.637 127.035C178.529 127.035 166.975 112.808 166.45 97.54H179.93C180.455 107.95 188.333 115.411 201.988 115.411C213.191 115.411 221.069 110.9 221.069 102.398C221.069 95.6315 215.642 92.1615 207.414 90.0795L192.359 86.2625Z" fill="#107A4D"/>
<path d="M246.877 125.3V38.5499H260.882V53.2974C267.009 43.7549 275.937 36.8149 288.892 36.8149C306.398 36.8149 319.002 49.3069 319.002 70.3005V125.3H304.997V70.821C304.997 56.4204 297.12 48.9599 284.34 48.9599C271.211 48.9599 260.882 56.7674 260.882 75.1585V125.3H246.877Z" fill="#107A4D"/>
<path d="M357.385 127.035C340.404 127.035 330.6 117.319 330.6 104.306C330.6 89.7325 342.854 81.578 356.509 78.2815L385.569 71.3415V68.5655C385.569 53.8179 378.042 48.6129 365.963 48.6129C352.658 48.6129 345.48 54.8589 344.955 67.698H330.95C331.826 47.5719 347.056 36.8149 366.663 36.8149C388.02 36.8149 399.574 49.8274 399.574 69.9535V125.3H385.569V110.726C378.917 121.136 370.339 127.035 357.385 127.035ZM344.605 102.918C344.605 111.941 351.257 116.105 360.886 116.105C374.365 116.105 385.569 107.777 385.569 92.682V82.0985L360.01 88.171C349.682 90.6 344.605 94.9375 344.605 102.918Z" fill="#107A4D"/>
<path d="M413.404 160V38.5499H427.409V54.5119C434.236 42.8874 443.69 36.8149 456.994 36.8149C479.227 36.8149 495.158 53.6444 495.158 81.925C495.158 110.206 479.227 127.035 456.994 127.035C443.69 127.035 434.236 120.963 427.409 109.338V160H413.404ZM427.409 86.2625C427.409 103.612 437.037 115.064 454.018 115.064C470.299 115.064 480.978 104.654 480.978 84.5275V79.3225C480.978 59.1964 470.299 48.7864 454.018 48.7864C437.037 48.7864 427.409 60.2374 427.409 77.5875V86.2625Z" fill="#107A4D"/>
<path d="M505.558 125.3V38.5499H519.562V125.3H505.558ZM504.857 20.6794H520.263V4.71738H504.857V20.6794Z" fill="#107A4D"/>
<path d="M533.943 125.3V38.5499H547.948V53.2974C554.075 43.7549 563.004 36.8149 575.958 36.8149C593.464 36.8149 606.069 49.3069 606.069 70.3005V125.3H592.064V70.821C592.064 56.4204 584.186 48.9599 571.407 48.9599C558.277 48.9599 547.948 56.7674 547.948 75.1585V125.3H533.943Z" fill="#107A4D"/>
<path d="M623.794 21.5469C623.794 8.53439 630.446 0.379883 644.801 0.379883H656.355V12.8719H645.501C639.899 12.8719 637.799 14.6069 637.799 20.8529V38.5499H654.604V50.6949H637.799V125.3H623.794V50.6949H611.014V38.5499H623.794V21.5469Z" fill="#107A4D"/>
<path d="M660.979 125.3V38.5499H674.984V51.7359C680.236 40.9789 688.989 37.6824 699.318 37.6824H702.294V51.2154H692.315C680.586 51.2154 674.984 57.4614 674.984 69.433V125.3H660.979Z" fill="#107A4D"/>
<path d="M732.337 127.035C715.356 127.035 705.553 117.319 705.553 104.306C705.553 89.7325 717.807 81.578 731.462 78.2815L760.522 71.3415V68.5655C760.522 53.8179 752.994 48.6129 740.915 48.6129C727.61 48.6129 720.433 54.8589 719.908 67.698H705.903C706.778 47.5719 722.009 36.8149 741.615 36.8149C762.973 36.8149 774.527 49.8274 774.527 69.9535V125.3H760.522V110.726C753.87 121.136 745.292 127.035 732.337 127.035ZM719.558 102.918C719.558 111.941 726.21 116.105 735.838 116.105C749.318 116.105 760.522 107.777 760.522 92.682V82.0985L734.963 88.171C724.634 90.6 719.558 94.9375 719.558 102.918Z" fill="#107A4D"/>
<path d="M20.3561 27.3119C18.8217 28.8463 17.2873 30.3806 15.753 31.915C10.843 36.5182 5.93295 41.4282 2.86419 47.5657C-0.818318 54.6239 0.102282 62.2957 0.102282 69.9676C0.102283 81.6289 0.102284 110.782 0.102285 127.967L15.753 116.306C15.753 95.1314 15.753 61.9889 15.753 46.6451C15.753 40.2007 16.9805 34.6769 20.3561 29.46C20.663 28.5394 20.663 27.6188 20.3561 27.3119Z" fill="#107A4D"/>
<path d="M45.5199 14.4228C43.9855 15.9572 42.4511 17.4916 40.9167 19.0259C36.0067 23.6291 31.0967 28.5391 28.028 34.6766C24.3455 41.7347 25.2661 49.4066 25.2661 57.0785C25.2661 67.2054 25.2661 91.4486 25.2661 108.634L40.9168 96.9724C40.9167 76.1048 40.9167 47.5654 40.9167 33.4491C40.9167 27.0047 42.1443 21.4809 45.5199 16.264C45.8268 15.6503 45.8268 15.0366 45.5199 14.4228Z" fill="#107A4D"/>
<path d="M70.07 9.97039e-05C68.5356 1.53448 67.0012 3.06886 65.4668 4.60324C60.5568 9.20637 55.6468 14.1164 52.578 20.2539C48.8955 27.312 49.8162 34.9839 49.8162 42.6558C49.8162 52.169 49.8162 73.0365 49.8162 89.9147L65.4668 78.2534C65.4668 57.9996 65.4668 32.222 65.4668 19.3332C65.4668 12.8888 66.6943 7.36511 70.07 2.14822C70.3769 1.22759 70.6837 0.613851 70.07 9.97039e-05Z" fill="#107A4D"/>
<path d="M111.498 129.194C113.032 127.66 114.567 126.126 116.101 124.591C121.011 119.988 125.921 115.078 128.99 108.941C132.672 101.883 131.752 94.2106 131.752 86.5387L131.752 28.5392L116.101 40.2005C116.101 61.3749 116.101 94.5175 116.101 109.861C116.101 116.306 114.874 121.829 111.498 127.046C111.191 127.967 111.191 128.581 111.498 129.194Z" fill="#107A4D"/>
<path d="M86.3343 142.083C87.8687 140.549 89.403 139.015 90.9374 137.48C95.8474 132.877 100.757 127.967 103.826 121.83C107.509 114.772 106.588 107.1 106.588 99.4278L106.588 47.8726L90.9374 59.5339C90.9374 80.4015 90.9374 108.941 90.9374 123.057C90.9374 129.502 89.7099 135.025 86.3343 140.242C86.0274 140.856 86.0274 141.47 86.3343 142.083Z" fill="#107A4D"/>
<path d="M61.4771 156.199C63.0115 154.665 64.5459 153.131 66.0802 151.596C70.9903 146.993 75.9003 142.083 78.9691 135.946C82.6516 128.887 81.7309 121.216 81.7309 113.544L81.7309 66.2848L66.0802 77.9461C66.0802 98.1999 66.0802 123.977 66.0802 136.866C66.0802 143.311 64.8527 148.834 61.4771 154.051C61.1702 154.972 61.1702 155.586 61.4771 156.199Z" fill="#107A4D"/>
</svg>
